{"title":"City by the Sea(2002)MEG-4[DaScubaDude]","uid":14642753,"size":1084717386,"categoryP":"video","categoryS":"movies","magnet":"?xt=urn:btih:62331e3dd31efc25446ef1436e3109b8209decca&amp;dn=City+by+the+Sea%282002%29MEG-4%5BDaScubaDude%5D&amp;tr=udp%3A%2F%2Ftracker.leechers-paradise.org%3A6969&amp;tr=udp%3A%2F%2Fzer0day.ch%3A1337&amp;tr=udp%3A%2F%2Fopen.demonii.com%3A1337&amp;tr=udp%3A%2F%2Ftracker.coppersurfer.tk%3A6969&amp;tr=udp%3A%2F%2Fexodus.desync.com%3A6969","seeders":1,"leechers":0,"uploader":"dascuba","files":1,"time":1463546212,"description":"City by the Sea (2002)\r\nR | 1h 48min | Crime, Drama, Mystery | 6 September 2002 (USA)\r\nVincent Lamarca, whose father was executed for a 1950s kidnapping of a child, grew up to become a police officer, only to see his own son become a murderer.\r\nDirector: Michael Caton-Jones\r\nWriters: Mike McAlary (article) (as Michael McAlary), Ken Hixon (screenplay)\r\nStars: Robert De Niro, James Franco, Frances McDormand |\r\n\r\nGeneral\r\nComplete name                            : CitybytheSeaCITY_BY_THE_SEA_Title1.mp4\r\nFormat                                   : MPEG-4\r\nFormat profile                           : Base Media\r\nCodec ID                                 : isom (isom/iso2/avc1/mp41)\r\nFile size                                : 1.01 GiB\r\nDuration                                 : 1h 48mn\r\nOverall bit rate mode                    : Variable\r\nOverall bit rate                         : 1 335 Kbps\r\nMovie name                               : CITY_BY_THE_SEA\r\nGenre                                    : Drama\r\nWriting application                      : Lavf54.6.100\r\n\r\nVideo\r\nID                                       : 1\r\nFormat                                   : AVC\r\nFormat/Info                              : Advanced Video Codec\r\nFormat profile                           :   \r\nFormat settings, CABAC                   : No\r\nFormat settings, ReFrames                : 6 frames\r\nCodec ID                                 : avc1\r\nCodec ID/Info                            : Advanced Video Coding\r\nDuration                                 : 1h 48mn\r\nBit rate                                 : 1 200 Kbps\r\nWidth                                    : 720 pixels\r\nHeight                                   : 404 pixels\r\nDisplay aspect ratio                     : 16:9\r\nFrame rate mode                          : Constant\r\nFrame rate                               : 29.970 (30000/1001) fps\r\nColor space                              : YUV\r\nChroma subsampling                       : 4:2:0\r\nBit depth                                : 8 bits\r\nScan type                                : Progressive\r\nBits/(Pixel*Frame)                       : 0.138\r\nStream size                              : 930 MiB (90%)\r\n\r\nAudio\r\nID                                       : 2\r\nFormat                                   : AAC\r\nFormat/Info                              : Advanced Audio Codec\r\nFormat profile                           : LC\r\nCodec ID                                 : 40\r\nDuration                                 : 1h 48mn\r\nBit rate mode                            : Variable\r\nBit rate                                 : 128 Kbps\r\nMaximum bit rate                         : 152 Kbps\r\nChannel(s)                               : 2 channels\r\nChannel positions                        : Front: L R\r\nSampling rate                            : 44.1 KHz\r\nFrame rate                               : 43.066 fps (1024 spf)\r\nCompression mode                         : Lossy\r\nStream size                              : 99.2 MiB (10%)","torrent":{"xt":"urn:btih:62331e3dd31efc25446ef1436e3109b8209decca","amp;dn":"City+by+the+Sea%282002%29MEG-4%5BDaScubaDude%5D","amp;tr":["udp%3A%2F%2Ftracker.leechers-paradise.org%3A6969","udp%3A%2F%2Fzer0day.ch%3A1337","udp%3A%2F%2Fopen.demonii.com%3A1337","udp%3A%2F%2Ftracker.coppersurfer.tk%3A6969","udp%3A%2F%2Fexodus.desync.com%3A6969"],"infoHash":"62331e3dd31efc25446ef1436e3109b8209decca","infoHashBuffer":{"type":"Buffer","data":[98,51,30,61,211,30,252,37,68,110,241,67,110,49,9,184,32,157,236,202]},"announce":[],"urlList":[]}}